<svg version="1.2" xmlns="http://www.w3.org/2000/svg" viewBox="0 0 2000 2000" width="1000" height="1000">
	<title>vecteezy_set-of-hair-icon-vector-illustration-design-logo_6810485-ai</title>
	<defs>
		<radialGradient id="g1" cx="1232.8" cy="1028.1" r="429.5" gradientUnits="userSpaceOnUse">
			<stop offset=".6" stop-color="#eed28a"/>
			<stop offset=".9" stop-color="#c18428"/>
		</radialGradient>
		<radialGradient id="g2" cx="744.3" cy="1102.2" r="407.3" gradientUnits="userSpaceOnUse">
			<stop offset=".6" stop-color="#eed28a"/>
			<stop offset=".9" stop-color="#c18428"/>
		</radialGradient>
		<radialGradient id="g3" cx="944.5" cy="474.6" r="193.2" gradientUnits="userSpaceOnUse">
			<stop offset="0" stop-color="#eed28a"/>
			<stop offset=".7" stop-color="#c18428"/>
		</radialGradient>
		<radialGradient id="g4" cx="959.3" cy="1496" r="193.9" gradientUnits="userSpaceOnUse">
			<stop offset="0" stop-color="#eed28a"/>
			<stop offset=".7" stop-color="#c18428"/>
		</radialGradient>
		<radialGradient id="g5" cx="1034.5" cy="887.2" r="364.9" gradientUnits="userSpaceOnUse">
			<stop offset=".1" stop-color="#eed28a"/>
			<stop offset=".7" stop-color="#c18428"/>
		</radialGradient>
		<radialGradient id="g6" cx="931.5" cy="1086.4" r="364.9" gradientUnits="userSpaceOnUse">
			<stop offset=".1" stop-color="#eed28a"/>
			<stop offset=".7" stop-color="#c18428"/>
		</radialGradient>
		<radialGradient id="g7" cx="794.2" cy="952.1" r="233" gradientUnits="userSpaceOnUse">
			<stop offset="0" stop-color="#7f8285"/>
			<stop offset="1" stop-color="#3e4041"/>
		</radialGradient>
		<radialGradient id="g8" cx="1303.1" cy="996.1" r="170.1" gradientUnits="userSpaceOnUse">
			<stop offset="0" stop-color="#7f8285"/>
			<stop offset="1" stop-color="#3e4041"/>
		</radialGradient>
	</defs>
	<style>
		.s0 { fill: url(#g1) } 
		.s1 { fill: url(#g2) } 
		.s2 { fill: url(#g3) } 
		.s3 { fill: url(#g4) } 
		.s4 { fill: url(#g5) } 
		.s5 { fill: url(#g6) } 
		.s6 { fill: url(#g7) } 
		.s7 { fill: url(#g8) } 
	</style>
	<g id="Layer 1">
		<g id="&lt;Group&gt;">
			<g id="&lt;Group&gt;">
				<path id="&lt;Path&gt;" class="s0" d="m1662.3 1057c-0.7 93.1-19.4 183.5-55.6 268.6-35 82.2-84.7 156-147.8 219.3-61.1 61.3-131.7 109.8-210 144.4 2.8-4.7 5.4-9.7 8.2-15 2.6-5.7 5.5-11.5 8.1-17.9 5.3-12.6 10-26.7 14-42.1 3.2-12.4 5.7-25.6 7.6-39.5 173.5-106.4 290.5-298.7 292.1-517.8 2.4-334-264.3-605.8-594.6-605.8-47.4 0-93.6 5.7-137.9 16.2-4-5.5-7.9-11.2-11.5-16.9-1.6-2.5-3.2-5.1-4.7-7.6-1.6-2.6-3.1-5.1-4.6-7.6q-2.2-3.9-4.5-7.7-2.1-3.9-4.2-7.7c-1.4-2.6-2.7-5.2-4-7.8-1.3-2.6-2.6-5.1-3.8-7.8q-1.9-3.9-3.7-7.8-1.1-2.4-2.1-4.9c58.8-16.4 119.6-24.6 181.6-24.6 92.1 0 181.3 18.2 265.2 54.2 81 34.8 153.6 84.5 215.8 147.9 62.2 63.3 110.9 137.1 144.7 219.3 34.9 85.1 52.3 175.5 51.7 268.6z"/>
				<path id="&lt;Path&gt;" class="s1" d="m1151 1705.7q-0.1 1.5-0.2 3.1c-44.6 8.7-90.2 12.9-136.4 12.6-92.1-0.6-181.3-19.3-265.2-55.5-81-35-153.6-84.7-215.8-147.8-62.2-63.1-110.9-136.4-144.7-217.9-34.9-84.4-52.3-173.9-51.7-266 0.7-92.1 19.4-181.3 55.6-265.2 34.9-81 84.6-153.6 147.7-215.8 26.1-25.8 54.1-49.2 83.6-70.2-2.1 5.7-4.2 12-6.1 18.9-1.6 5.3-2.9 10.9-4.3 16.9-1.2 6-2.6 12.3-3.5 19-2.1 13.2-3.4 27.8-3.8 43.4q-0.2 11.8 0.3 24.3c-113.6 108.2-185 260.4-186.2 429.3-2.3 330.3 264.5 600.9 594.7 603.3 44.9 0.3 88.6-4.4 130.7-13.5 2.6 13.9 4.3 27.5 5.2 40.7 0.3 5.6 0.7 11.1 0.7 16.5 0 2.7 0 5.4 0 8.1q-0.1 4-0.2 7.9c-0.1 1.4-0.1 2.7-0.1 4q-0.2 1.9-0.3 3.9z"/>
				<path id="&lt;Path&gt;" class="s2" d="m1137.7 808.2c0 0-1.9-2.5-5.5-7.3-1.7-2.3-4-5.2-6.7-8.5-1.2-1.7-2.8-3.5-4.3-5.4-1.6-1.8-3.1-3.9-4.9-5.9-7.1-8.4-16-18.3-26.5-29.2-10.5-11-22.7-22.9-36.4-35.6-6.9-6.3-14.1-13-21.6-19.6-7.6-6.7-15.4-13.7-23.5-20.7-16.1-14.2-33.4-29-51.1-44.7-8.8-7.8-17.8-15.9-26.8-24.1q-6.7-6.3-13.5-12.6c-4.5-4.3-9-8.5-13.5-12.9-8.9-8.8-18-17.7-26.7-27-8.7-9.3-17.3-18.8-25.7-28.6-14.5-17.3-28.4-35.3-40.6-54.2q-2.6-4-5.1-8.1c-6.8-10.9-13.1-22-18.6-33.4-5.5-11.2-10.7-22.5-14.8-34q-0.1-0.1-0.1-0.3c-4.3-11.6-8-23.1-10.8-34.6-2.9-11.4-5.1-22.8-6.7-34-3-22.2-3.6-43.5-2.5-62.8 1.1-19.4 3.8-37 7-52.2 3.1-15.3 7.1-28.3 10.4-38.9 3.5-10.6 6.6-18.7 8.9-24.2 2.2-5.5 3.4-8.4 3.4-8.4 0 0-0.5 3.1-1.5 9-0.5 2.9-1.3 6.5-1.9 10.7q-0.9 6.3-2.1 14.5c-1.4 10.8-3.1 24-4 39.1-0.9 15.1-1.3 32.1-0.2 50.4 1.1 18.3 3.6 37.9 8.1 58.2 0.5 2.5 1.3 5.1 1.9 7.6 0.7 2.6 1.2 5.1 2 7.7 1.4 5.1 2.9 10.3 4.6 15.4 1.7 5.2 3.6 10.3 5.5 15.5 0.9 2.6 2.1 5.2 3.1 7.8 1 2.6 2.1 5.2 3.3 7.7q0.6 1.5 1.2 2.9 1.1 2.4 2.2 4.9 1.9 3.8 3.7 7.7c1.2 2.6 2.6 5.1 3.9 7.7 1.4 2.6 2.6 5.1 4.1 7.7q2.1 3.8 4.3 7.6 2.2 3.8 4.5 7.6c1.5 2.5 3.1 5 4.6 7.5 1.6 2.5 3.1 5.1 4.8 7.5 3.7 5.7 7.6 11.3 11.6 16.8q4.6 6.3 9.3 12.6c7.3 9.7 15 19.2 23 28.5 7.9 9.4 16 18.6 24.4 27.6 8.4 9 16.8 17.9 25.3 26.6 4.3 4.4 8.6 8.7 12.9 13q6.4 6.5 12.8 12.9 12.8 12.7 25.4 25.1c16.7 16.5 32.9 32.6 48 48.2 15.2 15.7 29.1 30.9 41.6 45.3 12.4 14.5 23.2 28.4 32.2 41 9.1 12.7 16.4 24.1 21.9 33.8 5.5 9.6 9.3 17.5 11.9 22.8 2.5 5.4 3.8 8.3 3.8 8.3z"/>
				<path id="&lt;Path&gt;" class="s3" d="m1153.1 1670c-0.5 12.9-1.6 25.3-3.4 37.3-1.7 11-3.9 21.6-6.7 31.6-5.7 20.8-13.3 38.9-21.3 54.2-3.9 7.7-8.1 14.6-12 20.9-4.1 6.1-7.8 11.8-11.6 16.6-1.8 2.5-3.5 4.8-5.2 6.9q-2.6 3.2-4.8 5.9-2.3 2.7-4.2 5-2.1 2.2-3.7 4c-4.5 4.7-6.9 7.2-6.9 7.2 0 0 1.7-3 4.7-8.7q1.2-2.1 2.6-4.8 1.3-2.6 2.9-5.7 1.5-3.1 3.3-6.7c1.2-2.4 2.3-5 3.5-7.7 2.6-5.4 5-11.5 7.7-18 2.5-6.7 5.3-13.8 7.6-21.6 4.9-15.5 9.2-33.3 11.8-52.7 0.6-4.9 1-9.9 1.6-15q0.1-2.2 0.3-4.5 0.1-1.6 0.2-3.2 0.1-1.9 0.2-3.9c0.1-1.3 0-2.6 0.1-3.9q0.1-3.9 0.1-7.9c0.1-2.7 0-5.4-0.1-8.1 0.1-5.4-0.4-10.9-0.7-16.5-1-13.2-2.9-26.8-5.5-40.6-1.8-9.4-4-18.9-6.6-28.4-6.4-23.6-15.2-47.4-25.7-71-2.6-5.9-5.5-11.8-8.3-17.6q-2.2-4.4-4.4-8.8c-1.4-2.9-2.9-5.9-4.5-8.8-6-11.6-12.6-23.1-19.4-34.5-13.4-22.8-28.4-44.9-43.7-66.4-3.9-5.3-7.7-10.6-11.6-15.8q-2.9-3.9-5.9-7.8-2.9-3.9-5.9-7.8c-7.9-10.2-15.9-20.2-23.8-30-7.9-9.9-16.1-19.2-23.9-28.6-7.9-9.2-15.8-18.2-23.5-26.9-15.5-17.3-30.5-33.5-44.6-48.3-14-14.8-27.1-28.2-38.8-40-11.8-11.8-22.1-22.1-30.6-30.5-17.2-16.9-27-26.6-27-26.6 0 0 3 1.7 8.6 4.9 5.6 3.3 13.8 8.1 24 14.6 10.2 6.5 22.4 14.6 36.2 24.4 13.7 9.7 29 21.1 45.2 34 8.2 6.5 16.5 13.5 25 20.7 8.6 7.3 17.2 15 26 23.1 17.6 16.1 35.7 33.8 53.4 52.9 4.5 4.8 9 9.7 13.4 14.6 4.4 5 8.8 10 13.1 15.2 8.8 10.2 17.4 20.9 25.8 31.8 4.2 5.6 8.4 11 12.5 16.7 2 2.8 4.1 5.6 6.1 8.5q3 4.3 6 8.6c7.8 11.7 15.5 23.4 22.8 35.6 7.1 12.1 14 24.5 20.4 37.1 6.5 12.6 12.3 25.5 17.6 38.5 2.8 6.4 5.2 13 7.7 19.5 2.2 6.6 4.6 13.2 6.5 19.8 2.1 6.6 3.9 13.2 5.7 19.8 0.9 3.3 1.6 6.7 2.4 10q0.6 2.4 1.2 4.9 0.4 2.5 0.9 5c2 9.4 3.5 18.8 4.6 28 2.1 16.9 2.9 33.5 2.6 49.5z"/>
				<path id="&lt;Path&gt;" class="s4" d="m1389.3 1397.3c-3.9 15.3-8.5 29.2-13.7 41.7-2.5 6.3-5.4 12.1-8 17.6-2.9 5.5-5.5 10.7-8.4 15.5-5.6 9.6-11.3 17.6-16.4 24.4-5.2 6.8-9.8 12.3-13.8 16.5-3.9 4.4-7.2 7.4-9.3 9.5-2.2 2.1-3.3 3.1-3.3 3.1 0 0 0.7-1.3 2.1-4 1.4-2.6 3.5-6.5 5.9-11.7 2.5-5.1 5.3-11.5 8.3-19.1q1.1-2.8 2.3-5.9 0.5-1.5 1.1-3.1 0.5-1.6 1.1-3.3 1.1-3.3 2.3-6.8c0.7-2.3 1.4-4.7 2.1-7.2 1.5-5 2.6-10.3 4-15.8 1.2-5.6 2.5-11.3 3.4-17.4 1.8-12.2 3.4-25.3 3.9-39.4 0.9-28-1.4-59.6-8.9-92.9-7.4-33.2-19.5-68.1-37.2-102-1.1-2.2-2.2-4.2-3.3-6.2q-1.7-3-3.4-6-2-3.5-3.9-6.9l-1-1.8-0.5-0.8-0.3-0.5c-0.3-0.6 0.1 0.3 0 0.1l-2-3.1q-4-6.3-8-12.7l-2-3.2-2.2-3.1q-2.1-3.1-4.3-6.3c-5.6-8.4-12.1-16.5-18.2-24.9-1.5-2.1-3.3-4.1-4.9-6.1q-2.5-3.1-5-6.1-2.5-3.1-5-6.2c-1.6-2-3.5-4-5.2-6q-5.2-6.1-10.5-12.1-5.6-6-11.1-12c-1.9-1.9-3.6-4-5.6-5.9q-2.9-3-5.8-5.9-2.9-2.9-5.8-5.9c-1.9-2-3.8-3.9-5.9-5.8q-6-5.9-12-11.7c-4-3.9-8.2-7.6-12.4-11.5q-3.1-2.9-6.2-5.8-3.2-2.8-6.4-5.6c-4.3-3.8-8.5-7.6-12.8-11.4-17.4-15.1-35.5-29.9-53.8-44.7q-13.9-11-27.9-22c-4.7-3.7-9.2-7.3-14.1-11.1l-14.3-11c-19.1-14.8-38.4-29.6-57.5-44.7-9.6-7.6-19.2-15.1-28.7-22.9-9.5-7.6-19-15.4-28.3-23.3-18.7-15.8-37.1-31.9-54.8-48.6-4.5-4.1-8.8-8.4-13.2-12.6q-3.2-3.2-6.5-6.4c-2.1-2.1-4.2-4.3-6.3-6.4q-6.4-6.5-12.6-13-6.2-6.6-12.2-13.2c-4.1-4.4-8-8.9-11.9-13.4q-2.9-3.4-5.8-6.8c-1.9-2.2-3.9-4.4-5.7-6.8q-5.6-6.9-11.1-13.7l-2.7-3.5-2.7-3.6q-2.7-3.6-5.4-7.2-2.6-3.6-5.3-7.2l-2.6-3.6-2.3-3.3q-4.5-6.8-9-13.5l-1.2-1.6-0.5-0.9-0.3-0.4c0.3 0.4-0.7-1-0.7-1l-2.3-3.6q-2.3-3.7-4.6-7.3c-2.9-4.9-5.8-9.7-8.5-14.6-16.9-29.7-29.9-59.7-39.5-88.9q-4.5-13.7-8-27c-5.2-20-8.7-39.4-10.8-57.8-1.8-16.4-2.6-32-2.3-46.6 0.2-15.7 1.4-30.2 3.4-43.5 0.9-6.7 2.2-13 3.4-19 1.3-6 2.6-11.7 4.2-17 2.8-10.7 6.1-19.9 9.2-27.8 3.2-7.9 6.2-14.5 8.8-19.7 2.5-5.3 4.8-9 6.3-11.6 1.4-2.6 2.2-4 2.2-4 0 0-0.3 1.6-0.9 4.5-0.5 2.9-1.5 7.3-2.4 12.9-0.9 5.6-1.9 12.5-2.8 20.6q-0.2 3.1-0.5 6.4-0.2 1.6-0.3 3.3-0.1 1.7-0.2 3.4-0.2 3.5-0.4 7.2c-0.2 2.5-0.1 5-0.2 7.6-0.2 5.2 0.1 10.7 0.1 16.3 0.2 5.8 0.4 11.7 1 17.8 1.2 12.4 2.7 25.6 5.5 39.5 2 9.7 4.4 19.8 7.3 30.2 5.3 19.1 12.4 39.1 21.4 59.4q4.1 9.2 8.8 18.6c12.6 25.5 28.2 51.4 46.8 76.5 2.8 4 5.9 7.8 8.9 11.7q2.3 2.9 4.6 5.8l2.3 2.9c0.2 0.3-0.6-0.8-0.1-0.2l0.3 0.4 0.6 0.8 1.3 1.5q5.2 6.2 10.5 12.4l2.6 3.1 2.5 2.8q2.5 2.7 5.1 5.5 2.5 2.8 5 5.6l2.6 2.8 2.7 2.8q5.4 5.7 10.9 11.4c1.8 1.9 3.8 3.8 5.7 5.6q2.8 2.8 5.7 5.6c3.8 3.8 7.6 7.6 11.6 11.2q6 5.6 12 11.2 6.1 5.5 12.3 11c2.1 1.8 4.1 3.7 6.2 5.5q3.2 2.8 6.4 5.5c4.3 3.6 8.5 7.3 12.8 10.9q6.6 5.4 13.1 10.9c4.4 3.6 8.9 7.2 13.4 10.8 8.9 7.2 18.1 14.4 27.3 21.6 9.3 7.1 18.5 14.4 28 21.6q14.2 10.8 28.5 21.6c19.2 14.5 38.5 29.2 58 44.1l14.5 11.3 14.5 11.5c9.8 7.7 19.3 15.6 28.9 23.4 9.5 8.1 19.1 16 28.3 24.3 9.4 8.1 18.6 16.5 27.7 25 18.1 17.1 35.7 34.6 52.3 52.9q3.2 3.4 6.2 6.9 3 3.5 6.1 7 3 3.5 6 7c2 2.3 3.9 4.7 5.8 7.1q5.8 7.2 11.6 14.3 5.5 7.3 10.9 14.6c1.8 2.5 3.7 4.9 5.4 7.4q2.6 3.7 5.1 7.4 2.6 3.8 5.1 7.5c1.7 2.5 3.4 4.9 5 7.5q4.7 7.7 9.4 15.2c3.2 5 6 10.3 8.9 15.4q2.1 3.9 4.2 7.7l2.2 3.9 1.9 3.9q3.9 7.9 7.7 15.6l1.9 3.9c0 0.1 0.6 1.3 0.5 1l0.2 0.4 0.4 0.9 0.8 1.9q1.6 3.6 3.2 7.3 1.7 4.1 3.4 8.2c1.1 2.8 2.2 5.6 3.1 8.2 16.1 42.6 24.2 84.8 26.4 123.8 2.2 39.1-1.8 75-9.5 105.5z"/>
				<path id="&lt;Path&gt;" class="s5" d="m1293.6 1557.5c-1.8 13.7-4.2 26.8-7.3 39-3.9 15.3-8.5 29.2-13.7 41.7-2.5 6.2-5.4 12.1-8 17.6-2.8 5.3-5.3 10.3-8.1 14.9q-0.2 0.3-0.3 0.5c-5.6 9.7-11.3 17.7-16.4 24.5-5.2 6.8-9.8 12.3-13.8 16.5-3.9 4.4-7.2 7.4-9.3 9.5-2.2 2-3.3 3.1-3.3 3.1 0 0 0.7-1.4 2.1-4 1.4-2.7 3.5-6.5 5.9-11.7 2.5-5.1 5.3-11.5 8.3-19.1q1.1-2.9 2.3-5.9 0.5-1.6 1.1-3.1 0.1-0.3 0.2-0.6 0.4-1.3 0.9-2.7 1.1-3.3 2.3-6.8c0.7-2.3 1.4-4.8 2.1-7.3 1.5-4.9 2.6-10.3 4-15.7 1.2-5.6 2.5-11.3 3.4-17.4 1.8-12.2 3.4-25.3 3.9-39.4q0.2-4.7 0.2-9.6c0.1-25.6-2.5-53.8-9.1-83.3-7.4-33.2-19.5-68.1-37.2-102-1.1-2.2-2.2-4.2-3.3-6.2q-1.7-3-3.4-6.1-1.9-3.4-3.9-6.9l-1-1.7-0.5-0.9-0.3-0.4c-0.3-0.6 0.2 0.3 0 0.1l-2-3.2q-4-6.3-8-12.6l-2-3.2-2.2-3.1q-2.1-3.1-4.3-6.3c-5.6-8.4-12-16.6-18.2-24.9-1.5-2.1-3.3-4.1-4.9-6.1q-2.5-3.1-5-6.2-2.5-3-5-6.1c-1.6-2.1-3.5-4-5.2-6.1q-5.2-6-10.5-12.1-5.5-5.9-11.1-11.9c-1.9-2-3.6-4-5.6-5.9q-2.9-3-5.8-5.9-2.9-3-5.8-5.9c-1.9-2-3.8-4-5.9-5.9q-5.9-5.8-12-11.6c-4-3.9-8.2-7.7-12.4-11.5q-3.1-2.9-6.2-5.8-3.2-2.8-6.4-5.7c-4.3-3.7-8.5-7.6-12.8-11.3-17.4-15.1-35.5-29.9-53.8-44.7q-13.9-11-27.9-22.1c-4.7-3.6-9.2-7.3-14.1-11l-14.3-11c-19.1-14.8-38.4-29.6-57.5-44.7-9.6-7.6-19.2-15.1-28.7-22.9-9.5-7.6-19-15.4-28.3-23.3-18.7-15.8-37.1-31.9-54.8-48.6-4.5-4.1-8.8-8.5-13.2-12.7q-3.2-3.1-6.5-6.3c-2.1-2.1-4.2-4.3-6.3-6.4q-6.4-6.5-12.6-13-6.2-6.6-12.2-13.2c-4.1-4.4-8-8.9-11.9-13.5q-2.9-3.3-5.8-6.7c-1.9-2.2-3.9-4.5-5.7-6.8q-5.6-6.9-11.1-13.8l-2.7-3.4-2.7-3.6q-2.7-3.6-5.4-7.2-2.6-3.6-5.3-7.2l-2.6-3.6-2.3-3.4q-4.5-6.7-9-13.4l-1.2-1.7-0.5-0.8-0.3-0.4c0.3 0.4-0.7-1-0.7-1l-2.3-3.7q-2.3-3.6-4.6-7.2c-2.9-4.9-5.8-9.7-8.5-14.6-22.2-38.9-37.7-78.4-47.5-116-7.3-28.1-11.3-55.2-12.7-80.1q-0.6-12.5-0.4-24.3c0.2-15.6 1.4-30.2 3.4-43.5 0.9-6.6 2.2-12.9 3.4-18.9 1.3-6 2.6-11.7 4.2-17 1.8-6.9 3.8-13.2 5.9-18.9q1.7-4.7 3.4-9c3.1-7.8 6.1-14.4 8.7-19.6 2.5-5.3 4.8-9 6.3-11.7 1.5-2.5 2.2-3.9 2.2-3.9 0 0-0.3 1.5-0.8 4.5-0.6 2.9-1.6 7.2-2.5 12.9-0.8 4.5-1.5 9.9-2.2 16.2q-0.3 2.1-0.6 4.4-0.2 3.1-0.5 6.3-0.2 1.7-0.3 3.4-0.1 1.7-0.2 3.4-0.2 3.5-0.4 7.2c-0.2 2.4-0.1 5-0.2 7.6-0.2 5.1 0.1 10.6 0.1 16.3 0.3 5.7 0.4 11.7 1 17.8 1.1 11.1 2.4 22.9 4.7 35.3q0.4 2.1 0.8 4.1c5.6 27.8 14.8 58.3 28.7 89.7 14 31.4 32.4 63.8 55.6 95.1 2.8 4 5.9 7.8 8.9 11.7q2.3 2.9 4.6 5.8l2.3 2.9c0.2 0.2-0.6-0.9-0.1-0.2l0.3 0.4 0.6 0.7 1.3 1.6q5.2 6.1 10.5 12.4l2.6 3.1 2.5 2.8q2.5 2.7 5.1 5.5 2.5 2.8 5 5.6l2.6 2.7 2.7 2.9q5.4 5.6 10.9 11.4c1.8 1.9 3.8 3.7 5.7 5.6q2.8 2.8 5.7 5.6c3.8 3.7 7.6 7.6 11.6 11.2q6 5.6 12 11.2 6.1 5.5 12.3 11c2.1 1.8 4.1 3.7 6.2 5.5q3.2 2.7 6.4 5.5c4.3 3.6 8.5 7.3 12.8 10.9q6.6 5.4 13.1 10.9c4.4 3.6 8.9 7.2 13.4 10.8 8.9 7.2 18.1 14.4 27.3 21.6 9.3 7.1 18.5 14.4 28 21.5q14.2 10.8 28.5 21.7c19.2 14.4 38.5 29.2 58 44.1l14.5 11.3 14.5 11.5c9.8 7.6 19.3 15.6 28.9 23.4 9.5 8 19.1 15.9 28.3 24.3 9.4 8.1 18.6 16.5 27.7 25 18.1 17.1 35.7 34.6 52.3 52.9q3.2 3.4 6.2 6.9 3 3.5 6.1 7 3 3.5 6 7c2 2.3 3.9 4.7 5.9 7.1q5.7 7.1 11.5 14.3 5.5 7.3 10.9 14.6c1.8 2.5 3.7 4.8 5.4 7.3q2.6 3.8 5.1 7.5 2.6 3.8 5.1 7.5c1.7 2.5 3.4 4.9 5 7.5q4.7 7.6 9.4 15.2c3.2 5 6 10.3 8.9 15.4q2.1 3.9 4.2 7.7l2.2 3.9 1.9 3.9q3.9 7.8 7.7 15.6l1.9 3.9c0 0 0.6 1.2 0.5 0.9l0.2 0.5 0.4 0.9 0.8 1.9q1.6 3.6 3.2 7.3 1.7 4.1 3.4 8.2c1.1 2.8 2.2 5.6 3.1 8.2 16.1 42.5 24.2 84.8 26.4 123.8 1.3 23.5 0.4 45.8-2.2 66.5z"/>
			</g>
			<g id="&lt;Group&gt;">
				<path id="&lt;Path&gt;" class="s6" d="m1027.3 1211.8c-28.8-10.4-58.1-21.2-87.1-33-34.9-14.1-69.5-29.6-102.6-47.1-33.4-17.6-65.3-37.2-94.4-59.3-29.3-22.1-55.9-46.7-78.5-73.3-2.7-3.4-5.6-6.6-8.3-10-2.6-3.5-5.3-6.8-7.9-10.2q-3.9-5.2-7.7-10.4c-2.4-3.5-4.8-7-7.1-10.5-9.3-14.1-17.7-28.4-24.9-42.8-14.7-28.8-24.9-57.7-31.9-84.5q-0.7-2.5-1.4-5-0.5-2.5-1.1-4.9-1.2-5-2.3-9.7c-1.3-6.5-2.6-12.7-3.6-18.7-2-12.2-3.6-23.4-4.6-33.8-2.2-20.6-2.5-37.3-2.7-48.7 0.1-11.4 0.2-17.5 0.2-17.5 0 0 1.3 5.6 3.7 16q0.9 3.6 2 7.9 0.9 4.7 1.8 9.8c2.1 11.2 4.9 23.4 8.3 36.7 1.7 6.6 3.6 13.4 5.7 20.4q1.7 5.3 3.4 10.7 0.9 2.7 1.8 5.4 1 2.7 1.9 5.5c10.3 29.4 24.5 61.5 43.6 93.8 9.4 16.2 20.2 32.3 31.9 48.4 3 3.9 5.9 8 9 12q4.7 5.8 9.5 11.8c3.3 3.9 6.6 7.7 9.9 11.7 3.4 3.9 6.8 7.7 10.3 11.6 27.8 30.6 59.9 59.5 94.8 86.1 34.7 26.4 72.3 50.5 111.2 72.4 38.1 21.5 77.5 41.1 117.1 59.2z"/>
				<path id="&lt;Path&gt;" class="s7" d="m1133 665.5c0 0 1.3 3.5 3.9 10 2.5 6.6 6.4 15.4 11.3 26.3 5 10.5 11.1 22.8 18.5 35.5 7.3 12.7 16 26 25.9 39.3 10 13.4 21.3 27 33.8 40.8 12.7 14 26.8 28.3 41.9 43.2q11.5 11.3 23.7 23.3c8.3 8.1 16.8 16.4 25.3 25.1 8.7 8.8 17.6 17.7 26.4 27.2 8.9 9.7 18 19.5 26.8 29.8 17.8 21.1 35.2 43.5 50.3 67.6q2.9 4.5 5.6 9.1c1.8 3.1 3.7 6.1 5.4 9.2 3.5 6.3 6.9 12.5 9.9 18.8 1.6 3.2 3.2 6.3 4.6 9.5 1.4 3.2 2.9 6.3 4.3 9.5 2.7 6.4 5.2 12.8 7.4 19.2 2.3 6.3 4.1 12.8 6.1 19 1.6 6.4 3.4 12.6 4.4 18.8 2.6 12.3 3.9 24.4 4.5 35.9 0.8 22.5-1.8 43.1-7.3 60.7-5.1 16.7-12.2 30.6-19.6 41.8-3.5 5.4-7.3 10.1-10.7 14.3-3.6 4-6.7 7.6-10 10.6-1.5 1.5-2.9 2.9-4.3 4.2q-2.2 1.9-4.1 3.4-1.8 1.6-3.4 2.9-1.6 1.2-2.9 2.2c-3.5 2.6-5.4 4-5.4 4 0 0 1.3-1.7 3.7-4.7q0.9-1.2 2.1-2.6 1-1.5 2.3-3.3 1.2-1.8 2.7-3.9c0.9-1.4 1.8-3 2.9-4.6 2.1-3.3 4.1-7.1 6.4-11.4 2-4.4 4.5-9.2 6.4-14.6 4.2-11.2 7.8-24.6 9.3-40 0.3-2 0.4-4 0.5-6.1q0.2-3 0.4-6.2c0-2.1 0-4.3 0-6.5 0-2.2 0-4.4-0.2-6.6-0.3-4.6-0.4-9.2-1.1-13.9-0.3-2.4-0.4-4.8-0.9-7.2q-0.6-3.7-1.3-7.4c-2-10-4.3-20.3-7.8-30.7-0.8-2.7-1.7-5.3-2.7-8q-1.4-3.9-2.9-8c-2.2-5.3-4.2-10.7-6.7-16-9.7-21.7-22.2-43.1-36.1-64-13.9-20.6-29-40.5-44.8-59.4-15.3-18.8-31-36.4-46.1-53.7-7.4-8.4-14.7-16.7-21.9-25-7-8.1-13.9-16.1-20.5-24.2-13.2-15.7-25.3-31.6-36.4-47.3-10.9-15.7-20.8-31.6-29.4-47.5-8.6-15.9-16.1-32-22.4-47.6-6.3-15.7-11.5-31-15.6-44.3-2-6.9-3.9-12.9-5.3-18.7-1.5-5.8-2.9-10.6-3.8-14.8-2-8.4-3.1-13-3.1-13z"/>
			</g>
		</g>
	</g>
</svg>